<svg xmlns="http://www.w3.org/2000/svg" viewBox="0 0 64 64" role="img" aria-labelledby="title desc">
  <title>PrimeBot favicon</title>
  <desc>Stylized PrimeBot mark with a bot face inside a rounded square.</desc>
  <defs>
    <linearGradient id="bg" x1="0%" y1="0%" x2="100%" y2="100%">
      <stop offset="0%" stop-color="#0c1b25" />
      <stop offset="100%" stop-color="#091117" />
    </linearGradient>
    <linearGradient id="accent" x1="0%" y1="0%" x2="100%" y2="100%">
      <stop offset="0%" stop-color="#78f0d0" />
      <stop offset="100%" stop-color="#39c5ff" />
    </linearGradient>
  </defs>
  <rect x="4" y="4" width="56" height="56" rx="18" fill="url(#bg)" />
  <path
    d="M32 10c2.1 0 3.8 1.7 3.8 3.8v2.5c7.8 1 13.9 7.7 13.9 15.8v9.8c0 5.5-4.5 10-10 10H24.3c-5.5 0-10-4.5-10-10v-9.8c0-8.1 6.1-14.8 13.9-15.8v-2.5c0-2.1 1.7-3.8 3.8-3.8Z"
    fill="none"
    stroke="url(#accent)"
    stroke-width="3.5"
    stroke-linecap="round"
    stroke-linejoin="round"
  />
  <circle cx="24.5" cy="32.5" r="3.5" fill="#78f0d0" />
  <circle cx="39.5" cy="32.5" r="3.5" fill="#39c5ff" />
  <path
    d="M24 43h8.5c5.2 0 9.5-4.3 9.5-9.5S37.7 24 32.5 24H24v19Z"
    fill="none"
    stroke="#f4fbff"
    stroke-width="3.5"
    stroke-linecap="round"
    stroke-linejoin="round"
  />
</svg>
